# xmcd
#
# Track frame offsets:
#	150
#	13166
#	25440
#	44000
#	56772
#	67758
#	81936
#	97872
#	110628
#	127108
#	142461
#	157950
#
# Disc length: 2321 seconds
#
# Revision: 0
# Processed by: cddbd v1.5.2PL0 Copyright (c) Steve Scherf et al.
# Submitted via: EasyCDDAExtractor 10.0.6.1
#
DISCID=ac090f0c
DTITLE=Wendy Lewis - Mountain Memories
DYEAR=2000
DGENRE=Bluegrass
TTITLE0=Nelly Bly
TTITLE1=Chicken On Ice
TTITLE2=Living The Blues
TTITLE3=Keep On The Sunny Side
TTITLE4=Sweet Rosie By The River
TTITLE5=Wildwood Flower
TTITLE6=Chestnut Ridge
TTITLE7=My Home's Across 
TTITLE8=Is The Blue Moon Still Shining
TTITLE9=I'll Fly Away
TTITLE10=I'll Pick Pretty Flowers
TTITLE11=When The Roses Bloom In Dixie
EXTD=
EXTT0=
EXTT1=
EXTT2=
EXTT3=
EXTT4=
EXTT5=
EXTT6=
EXTT7=
EXTT8=
EXTT9=
EXTT10=
EXTT11=
PLAYORDER=
